<?xml version="1.0" encoding="iso-8859-1"?>
<!-- Generator: Adobe Illustrator 19.0.0, SVG Export Plug-In . SVG Version: 6.00 Build 0)  -->
<svg version="1.1" id="Capa_1" xmlns="http://www.w3.org/2000/svg" xmlns:xlink="http://www.w3.org/1999/xlink" x="0px" y="0px"
	 viewBox="0 0 512 512" style="enable-background:new 0 0 512 512;" xml:space="preserve">
<polyline style="fill:#82DCFF;" points="431,439.969 502,439.969 502,385.969 10,385.969 10,439.969 64,439.969 "/>
<polyline style="fill:#BBECFF;" points="350.75,204.073 412.998,204.073 502,293.058 502,385.167 315.151,385.167 "/>
<g>
	<path style="fill:#E7F8FF;" d="M398.527,204.073v79.475c0,15.292,12.397,27.688,27.688,27.688h76.26L502,293.058l-89.002-88.985
		L398.527,204.073L398.527,204.073z"/>
	<path style="fill:#E7F8FF;" d="M295,116.384h29.176c14.262,0,25.824,11.562,25.824,25.824v242.96H10v-242.96
		c0-14.262,11.562-25.824,25.824-25.824H68"/>
</g>
<g>
	<circle style="fill:#86DDFF;" cx="100.28" cy="451.97" r="36"/>
	<circle style="fill:#86DDFF;" cx="392" cy="451.97" r="36"/>
</g>
<path style="fill:#FED79A;" d="M260,270.031H100c-17.673,0-32-14.327-32-32v-214h224v214C292,255.704,277.673,270.031,260,270.031z"
	/>
<path d="M512,293.058c0-2.652-1.054-5.196-2.93-7.072l-40.798-40.791c0,0,0,0,0-0.001l-0.001-0.001L420.069,197
	c-1.875-1.875-4.418-2.928-7.07-2.928H360v-51.865c0-19.753-16.07-35.824-35.824-35.824H302V24.031c0-5.523-4.477-10-10-10H68
	c-5.523,0-10,4.477-10,10v82.353H35.824C16.07,106.384,0,122.454,0,142.208v297.761c0,5.523,4.477,10,10,10h44.329
	c-0.029,0.664-0.051,1.329-0.051,2c0,9.643,2.988,18.598,8.08,26H10c-5.523,0-10,4.477-10,10s4.477,10,10,10h156.987
	c5.523,0,10-4.477,10-10s-4.477-10-10-10h-28.789c5.091-7.402,8.08-16.357,8.08-26c0-25.364-20.636-46-46-46
	c-17.4,0-32.573,9.713-40.387,24H20v-34h472v34h-59.613c-7.814-14.287-22.987-24-40.387-24c-17.454,0-32.667,9.772-40.46,24.131
	c-0.504-0.078-1.016-0.131-1.541-0.131H185.667c-5.523,0-10,4.477-10,10s4.477,10,10,10h160.384c-0.029,0.664-0.051,1.329-0.051,2
	c0,9.643,2.988,18.598,8.079,26h-63.887c-5.523,0-10,4.477-10,10s4.477,10,10,10H391.98c0.007,0,0.013,0,0.019,0s0.013,0,0.019,0
	H459c5.523,0,10-4.477,10-10s-4.477-10-10-10h-29.079c5.091-7.402,8.079-16.357,8.079-26c0-0.671-0.022-1.336-0.051-2H502
	c5.523,0,10-4.477,10-10V293.058z M100.278,425.969c14.336,0,26,11.664,26,26s-11.664,26-26,26s-26-11.664-26-26
	S85.941,425.969,100.278,425.969z M391.981,477.968c-14.328-0.01-25.981-11.67-25.981-26c0-14.336,11.664-26,26-26s26,11.664,26,26
	c0,14.33-11.653,25.989-25.981,26H391.981z M492,302.07h-64.449c-0.646,0-1.285-0.034-1.915-0.097l35.565-35.565L492,297.201V302.07
	z M447.057,252.266l-37.34,37.34c-0.757-2.049-1.191-4.253-1.191-6.562v-68.972h0.331L447.057,252.266z M388.526,214.073v68.972
	c0,21.519,17.506,39.025,39.025,39.025H492v53.098H360V214.073H388.526z M78,34.031h204v204c0,12.131-9.869,22-22,22H100
	c-12.131,0-22-9.869-22-22V34.031z M20,142.208c0-8.725,7.099-15.824,15.824-15.824H58v111.647c0,23.159,18.841,42,42,42h160
	c23.159,0,42-18.841,42-42V126.384h22.176c8.725,0,15.824,7.099,15.824,15.824v232.96H20V142.208z"/>
<path d="M256.245,477.969h-0.13c-5.523,0-10,4.477-10,10s4.477,10,10,10h0.13c5.523,0,10-4.477,10-10
	S261.768,477.969,256.245,477.969z"/>
<path d="M180,164.031c31.981,0,58-26.019,58-58V72.626c0-5.523-4.477-10-10-10s-10,4.477-10,10v33.405c0,20.953-17.047,38-38,38
	s-38-17.047-38-38V72.626c0-5.523-4.477-10-10-10s-10,4.477-10,10v33.405C122,138.013,148.019,164.031,180,164.031z"/>
<path d="M244.716,308H126c-5.523,0-10,4.477-10,10s4.477,10,10,10h118.716c5.523,0,10-4.477,10-10S250.239,308,244.716,308z"/>
<path d="M87.81,308c-2.63,0-5.21,1.07-7.07,2.93c-1.87,1.86-2.93,4.44-2.93,7.07s1.06,5.21,2.93,7.07c1.86,1.86,4.43,2.93,7.07,2.93
	c2.63,0,5.21-1.07,7.07-2.93s2.93-4.44,2.93-7.07s-1.07-5.21-2.93-7.07C93.02,309.07,90.44,308,87.81,308z"/>
<g>
</g>
<g>
</g>
<g>
</g>
<g>
</g>
<g>
</g>
<g>
</g>
<g>
</g>
<g>
</g>
<g>
</g>
<g>
</g>
<g>
</g>
<g>
</g>
<g>
</g>
<g>
</g>
<g>
</g>
</svg>
